<?xml version="1.0" standalone="no"?><!DOCTYPE svg PUBLIC "-//W3C//DTD SVG 1.1//EN" "http://www.w3.org/Graphics/SVG/1.1/DTD/svg11.dtd"><svg t="1667451777449" class="icon" viewBox="0 0 1462 1024" version="1.1" xmlns="http://www.w3.org/2000/svg" p-id="2324" xmlns:xlink="http://www.w3.org/1999/xlink" width="285.546875" height="200"><path d="M1389.714286 146.285714H74.517943C37.215086 146.285714 2.896457 115.887543 0.2048 78.555429A73.142857 73.142857 0 0 1 73.142857 0h1315.0208c37.419886 0 71.767771 30.398171 74.430172 67.730286A73.142857 73.142857 0 0 1 1389.714286 146.285714z" p-id="2325" fill="#ffffff"></path><path d="M731.428571 585.142857H74.517943C37.215086 585.142857 2.896457 554.744686 0.2048 517.412571A73.142857 73.142857 0 0 1 73.142857 438.857143h656.735086c37.419886 0 71.738514 30.398171 74.430171 67.701028A73.142857 73.142857 0 0 1 731.428571 585.142857z" p-id="2326" fill="#ffffff"></path><path d="M1389.714286 1024H74.517943C37.215086 1024 2.896457 993.601829 0.2048 956.298971A73.142857 73.142857 0 0 1 73.142857 877.714286h1315.0208c37.419886 0 71.738514 30.398171 74.430172 67.701028A73.142857 73.142857 0 0 1 1389.714286 1024z" p-id="2327" fill="#ffffff"></path></svg>